<?xml version="1.0" encoding="UTF-8"?>
<svg version="1.1" xmlns="http://www.w3.org/2000/svg" width="1024" height="1024">
<path d="M0 0 C1.15769394 -0.00300613 1.15769394 -0.00300613 2.33877563 -0.006073 C14.77849661 -0.01396265 26.84620797 0.83916489 39.13354492 2.88598633 C43.46740816 3.58980836 47.78940421 4.28523546 52.1875 4.1875 C54.375 4.25 54.375 4.25 57.375 6.25 C59.36278484 6.90526259 61.37036273 7.50128165 63.38671875 8.0625 C64.60866943 8.41094971 65.83062012 8.75939941 67.08959961 9.1184082 C67.73782684 9.30247223 68.38605408 9.48653625 69.05392456 9.67617798 C84.85203391 14.18947774 101.14971629 19.10425581 115.34765625 27.54296875 C118.23129041 29.49558407 118.23129041 29.49558407 121.375 29.25 C122.39703039 30.22747321 123.3947474 31.23063508 124.375 32.25 C126.34129135 33.37648218 126.34129135 33.37648218 128.4375 34.3125 C130.95318969 35.47899298 132.38551026 36.26051026 134.375 38.25 C135.365 38.25 136.355 38.25 137.375 38.25 C138.71885716 39.90819284 140.05036973 41.57640799 141.375 43.25 C143.2869115 44.66895426 145.25110749 46.01895235 147.25 47.3125 C154.82199734 52.36625503 161.59078263 58.19752839 168.375 64.25 C168.92639648 64.73823242 169.47779297 65.22646484 170.04589844 65.72949219 C176.25021743 71.23661335 182.061442 76.86460842 187.375 83.25 C188.18195313 84.1575 188.98890625 85.065 189.8203125 86 C201.62348179 99.35751374 211.15088288 114.46667858 219.375 130.25 C219.7472168 130.96172363 220.11943359 131.67344727 220.50292969 132.40673828 C231.76973625 154.26319041 240.66012931 179.39971159 242.03344727 204.10424805 C242.14615967 204.81234619 242.25887207 205.52044434 242.375 206.25 C243.035 206.58 243.695 206.91 244.375 207.25 C247.24186709 275.32671697 232.16848837 328.46664425 195.375 386.25 C194.6855127 387.33651855 193.99602539 388.42303711 193.28564453 389.54248047 C188.67796739 396.79723536 184.03588735 404.02933999 179.375 411.25 C178.86098633 412.04728516 178.34697266 412.84457031 177.81738281 413.66601562 C175.14402775 417.81162682 172.46372244 421.95266114 169.77734375 426.08984375 C168.21491236 428.4965974 166.6543752 430.9045748 165.09375 433.3125 C163.95847578 435.06259241 162.82305922 436.8125925 161.6875 438.5625 C161.13980957 439.40707764 160.59211914 440.25165527 160.02783203 441.12182617 C156.31140957 446.84151841 152.53039434 452.51039504 148.66796875 458.1328125 C147.20126826 460.12101644 147.20126826 460.12101644 147.375 462.25 C146.80265625 462.81332031 146.2303125 463.37664062 145.640625 463.95703125 C142.95171236 466.67839628 141.08654255 469.68399782 139.125 472.9375 C138.24495257 474.37069104 137.36332994 475.80291555 136.48046875 477.234375 C135.99239746 478.02650391 135.50432617 478.81863281 135.00146484 479.63476562 C131.86184042 484.68304794 128.6460498 489.68285572 125.4375 494.6875 C124.39698486 496.31171875 124.39698486 496.31171875 123.33544922 497.96875 C119.0578641 504.64045328 114.75967386 511.29843155 110.44628906 517.94702148 C106.23176969 524.45234615 102.07418471 530.99352286 97.91748047 537.53588867 C93.41783254 544.61659311 88.90028147 551.68565397 84.375 558.75 C79.2160322 566.80419248 74.06906619 574.8658211 68.9375 582.9375 C62.95238262 592.35004199 56.94542949 601.7476611 50.875 611.10546875 C45.02291478 620.12873549 39.21893879 629.18105541 33.45776367 638.26269531 C30.81993092 642.41892435 28.17609862 646.56982244 25.484375 650.69140625 C25.05914551 651.34407471 24.63391602 651.99674316 24.19580078 652.66918945 C23.08466967 654.37036793 21.96832867 656.06814043 20.8515625 657.765625 C19.20469552 660.05487001 19.20469552 660.05487001 19.375 662.25 C17.70833333 663.91666667 16.04166667 665.58333333 14.375 667.25 C13.56825114 668.46932075 12.77673913 669.69884624 12 670.9375 C10.02755423 673.76322952 9.25401755 674.3071917 5.9375 675.875 C1.49278489 676.34286475 -0.00701188 675.867268 -3.625 673.25 C-5.31538903 671.19652025 -6.84737136 669.10372015 -8.328125 666.89453125 C-8.97007812 666.08048828 -8.97007812 666.08048828 -9.625 665.25 C-10.285 665.25 -10.945 665.25 -11.625 665.25 C-11.77642456 664.17286743 -11.77642456 664.17286743 -11.9309082 663.07397461 C-12.71519125 659.88304884 -13.93497131 657.81327372 -15.73046875 655.06640625 C-16.37725586 654.06754395 -17.02404297 653.06868164 -17.69042969 652.03955078 C-18.39071289 650.97462402 -19.09099609 649.90969727 -19.8125 648.8125 C-20.54024556 647.69310261 -21.26712228 646.57313993 -21.99316406 645.45263672 C-23.47923339 643.16028658 -24.96864091 640.87016199 -26.46044922 638.58154297 C-29.63182189 633.70036188 -32.75554638 628.78946126 -35.875 623.875 C-36.44669922 622.9763623 -37.01839844 622.07772461 -37.60742188 621.15185547 C-41.3571122 615.25627094 -45.0876239 609.34878219 -48.8125 603.4375 C-53.11983787 596.60198873 -57.47785836 589.80131558 -61.88549805 583.0300293 C-64.85164557 578.46905587 -67.75571834 573.87251908 -70.625 569.25 C-72.275 569.58 -73.925 569.91 -75.625 570.25 C-75.33753906 569.29867187 -75.05007813 568.34734375 -74.75390625 567.3671875 C-73.97604662 561.72876398 -77.50703952 557.8215677 -80.5625 553.375 C-81.85206951 551.42741895 -83.14111053 549.47948789 -84.4296875 547.53125 C-85.11256836 546.51289062 -85.79544922 545.49453125 -86.49902344 544.4453125 C-90.14049844 538.97222743 -93.65567706 533.41919325 -97.1875 527.875 C-98.50100974 525.82533346 -99.81479754 523.77584508 -101.12890625 521.7265625 C-103.66277449 517.77288365 -106.15687648 513.7985902 -108.59741211 509.78662109 C-109.66919441 508.07599552 -109.66919441 508.07599552 -111.625 506.25 C-112.65237969 504.72644262 -113.64727956 503.18089166 -114.625 501.625 C-115.57246094 500.12259766 -115.57246094 500.12259766 -116.5390625 498.58984375 C-117.93437077 496.35578276 -119.32497046 494.11877434 -120.7109375 491.87890625 C-127.72817976 480.5495125 -135.02445436 469.40655928 -142.33641052 458.2660675 C-145.48831474 453.46256739 -148.62583562 448.64979741 -151.76000977 443.8347168 C-153.6248374 440.97122023 -155.493575 438.11031274 -157.36328125 435.25 C-159.33222465 432.23740901 -161.28998874 429.21849134 -163.23046875 426.1875 C-164.29201172 424.5478125 -164.29201172 424.5478125 -165.375 422.875 C-165.94734375 421.98039062 -166.5196875 421.08578125 -167.109375 420.1640625 C-168.56615276 417.9654823 -168.56615276 417.9654823 -171.625 417.25 C-171.7075 416.30125 -171.79 415.3525 -171.875 414.375 C-172.1225 413.34375 -172.37 412.3125 -172.625 411.25 C-173.94147119 410.55062468 -175.27522151 409.88270867 -176.625 409.25 C-176.9589575 407.58345829 -177.29218008 405.91676927 -177.625 404.25 C-178.83580985 401.815472 -178.83580985 401.815472 -180.390625 399.4140625 C-181.23173828 398.06441406 -181.23173828 398.06441406 -182.08984375 396.6875 C-182.67894531 395.759375 -183.26804687 394.83125 -183.875 393.875 C-184.44863281 392.95460938 -185.02226562 392.03421875 -185.61328125 391.0859375 C-188.1396656 387.05753421 -190.69923474 383.08262945 -193.48828125 379.23046875 C-195.625 376.25 -195.625 376.25 -196.5625 373.9375 C-198.24734542 371.26156904 -200.6835664 371.0173305 -203.625 370.25 C-202.965 369.59 -202.305 368.93 -201.625 368.25 C-201.625 364.67826677 -202.52733296 363.32804927 -204.30078125 360.25390625 C-236.04976047 304.02657071 -246.94094378 239.13922442 -229.79638672 176.20849609 C-229.27102819 174.34675875 -228.73707123 172.48740718 -228.19116211 170.6315918 C-227.47081404 168.00940205 -227.47081404 168.00940205 -227.625 164.25 C-226.965 164.25 -226.305 164.25 -225.625 164.25 C-225.48964844 163.6415625 -225.35429687 163.033125 -225.21484375 162.40625 C-218.9803249 137.02018522 -203.82519207 113.71547049 -188.12451172 93.23291016 C-187.06245265 91.8284745 -186.01894785 90.40991875 -184.98876953 88.98193359 C-184.45751465 88.2492627 -183.92625977 87.5165918 -183.37890625 86.76171875 C-182.89881104 86.08971436 -182.41871582 85.41770996 -181.92407227 84.7253418 C-181.49537842 84.238479 -181.06668457 83.75161621 -180.625 83.25 C-179.965 83.25 -179.305 83.25 -178.625 83.25 C-178.36976563 82.67894531 -178.11453125 82.10789062 -177.8515625 81.51953125 C-174.32627303 74.99662303 -168.32849044 69.76527313 -162.71484375 65.03515625 C-161.3014755 63.82784917 -159.91871533 62.58392129 -158.56640625 61.30859375 C-147.0663524 50.48618605 -133.93681026 41.2740267 -120.34912109 33.26977539 C-118.74424051 32.31202407 -117.17939042 31.2876896 -115.625 30.25 C-115.625 29.59 -115.625 28.93 -115.625 28.25 C-114.84125 28.188125 -114.0575 28.12625 -113.25 28.0625 C-108.27211207 26.9467665 -104.10046306 24.64693773 -99.625 22.25 C-99.625 21.59 -99.625 20.93 -99.625 20.25 C-98.64917969 20.15074219 -97.67335938 20.05148438 -96.66796875 19.94921875 C-92.1627482 19.30206624 -88.15600904 17.7190451 -83.9375 16.0625 C-76.01656582 13.02853168 -68.03286086 10.47437736 -59.8605957 8.2043457 C-59.058396 7.97577881 -58.25619629 7.74721191 -57.4296875 7.51171875 C-56.71796387 7.31537842 -56.00624023 7.11903809 -55.27294922 6.91674805 C-53.41203043 6.37523108 -53.41203043 6.37523108 -52.625 4.25 C-51.49964844 4.27964844 -50.37429688 4.30929688 -49.21484375 4.33984375 C-44.43734763 4.3387926 -39.88481227 3.62761068 -35.1875 2.8125 C-23.38790324 0.81240615 -11.96433208 0.01508783 0 0 Z " fill="#FB6725" transform="translate(507.625,171.75)"/>
<path d="M0 0 C4.53587669 1.9894196 6.54562114 4.14200615 8.3968792 8.72208214 C9.72459249 13.73670246 9.36710604 18.97115048 9.30883789 24.12036133 C9.30467613 26.08752861 9.30467613 26.08752861 9.3004303 28.09443665 C9.29435729 30.93677554 9.27889381 33.77885009 9.25605965 36.62110329 C9.22010843 41.1232628 9.20625666 45.62532913 9.19541931 50.12760925 C9.17133032 58.87748777 9.12465971 67.62717606 9.07582855 76.3769455 C9.01494118 87.50302378 8.96521158 98.62912404 8.93383402 109.7553255 C8.92051516 114.2226191 8.89671511 118.68969339 8.8644315 123.1568886 C8.85061504 125.27174457 8.84144715 127.38656141 8.83427429 129.50144958 C8.82544838 132.06861147 8.80943479 134.63576401 8.78448486 137.20281982 C8.77501693 144.0551086 9.32740857 150.35000575 11 157 C11.2475 157.99 11.495 158.98 11.75 160 C12.90445711 162.22771135 12.90445711 162.22771135 15.5625 163.3125 C21.33366737 164.46673347 25.94004397 164.95368335 31.375 162.4375 C36.31528099 157.85009622 37.83210564 151.77063404 38.12469864 145.19947147 C38.1246571 144.17209086 38.12461555 143.14471025 38.12457275 142.0861969 C38.12713577 140.90159882 38.12969879 139.71700073 38.13233948 138.49650574 C38.13023972 137.20545425 38.12813995 135.91440277 38.12597656 134.58422852 C38.12737228 133.20408063 38.12927222 131.82393318 38.13163757 130.44378662 C38.13612572 127.47655964 38.13799046 124.50934645 38.13809967 121.54211617 C38.13924221 116.84794246 38.15209591 112.15384699 38.16766357 107.45970154 C38.17023643 106.66670247 38.17280928 105.8737034 38.1754601 105.05667406 C38.18072631 103.43544318 38.18601179 101.81421236 38.19131613 100.1929816 C38.22640236 89.26853452 38.2529758 78.34418589 38.25048828 67.41967773 C38.24889927 60.04460917 38.26494179 52.66980861 38.30119491 45.29482597 C38.31964413 41.39447262 38.32900681 37.4945667 38.31671906 33.59417915 C38.30527308 29.92574437 38.31700624 26.25811098 38.34635353 22.58978271 C38.35614402 20.60620812 38.34123678 18.62255952 38.32554626 16.63902283 C38.43889143 6.91607731 38.43889143 6.91607731 41.41522217 3.21592712 C45.11710542 0.04230678 46.99852847 -0.17876984 51.8125 -0.25 C52.85019531 -0.27578125 53.88789063 -0.3015625 54.95703125 -0.328125 C59.75047942 0.18875516 62.06150246 1.86646909 65.10884094 5.54708862 C67.51080176 9.93263082 67.60570453 13.19062696 67.62182617 18.10595703 C67.64031113 19.00485657 67.65879608 19.9037561 67.67784119 20.82989502 C67.73452155 23.80586739 67.76371231 26.78145451 67.79296875 29.7578125 C67.82794633 31.86020848 67.86470735 33.96257546 67.90315247 36.06491089 C68.0002851 41.62400443 68.07447925 47.18317109 68.14349365 52.74267578 C68.21527315 58.25964237 68.30611701 63.77628044 68.39648438 69.29296875 C68.43162919 71.46286931 68.46671445 73.63277084 68.5017395 75.80267334 C68.51898197 76.86951103 68.53622444 77.93634872 68.55398941 79.03551483 C68.60536601 82.25138141 68.65519927 85.46726839 68.70455933 88.6831665 C68.98472602 106.88442482 68.98472602 106.88442482 69.37194252 125.08364487 C69.40702543 126.57166877 69.43929862 128.05976241 69.46834373 129.54791641 C69.04861358 146.92588681 69.04861358 146.92588681 76 162 C79.98912113 164.43779625 84.43164666 164.69868933 89 164 C93.09727093 162.14463203 94.62502048 160.74777675 96.6439209 156.72172546 C98.77344033 150.62939929 98.41470574 144.33118121 98.38476562 137.95239258 C98.38887647 136.54061954 98.39434036 135.12884989 98.40104675 133.71708679 C98.41272389 130.69092767 98.41527347 127.66495069 98.41069031 124.63877296 C98.40385572 119.85216156 98.41978947 115.06578813 98.43908691 110.27922058 C98.48007327 99.25974111 98.49149059 88.24026882 98.50261688 77.22072601 C98.51312822 67.10903044 98.52989871 56.99744991 98.57071257 46.88582534 C98.58905857 42.12864455 98.59296538 37.37173792 98.58577728 32.61453021 C98.58425525 29.65662838 98.59503958 26.6988638 98.60915565 23.74099922 C98.61506364 21.71789091 98.60605537 19.69475624 98.59660339 17.67166138 C98.60890739 15.86123604 98.60890739 15.86123604 98.62145996 14.01423645 C98.62252872 12.44387744 98.62252872 12.44387744 98.62361908 10.84179401 C99.16726571 6.73709142 100.89041561 4.10716172 103.7890625 1.21484375 C108.40089494 -1.31921966 113.91418798 -0.56298168 119 0 C124.16570616 2.31566138 125.83118295 4.88978139 128 10 C128.56835938 13.45532227 128.56835938 13.45532227 128.84375 17.31640625 C128.89784531 18.02728394 128.95194061 18.73816162 129.00767517 19.47058105 C129.18417045 21.83383205 129.34220517 24.19793229 129.5 26.5625 C129.62281503 28.26561343 129.74661822 29.96865585 129.87133789 31.67163086 C130.19933192 36.20373331 130.51037569 40.73682933 130.81573486 45.27050781 C130.99434206 47.9161898 131.17604709 50.56163871 131.35888672 53.20703125 C132.05121702 63.2435344 132.71459135 73.28171558 133.36430359 83.32106018 C133.82588855 90.41923534 134.30762304 97.51590071 134.79759216 104.61216736 C135.12678847 109.38191727 135.45081536 114.15201512 135.77375126 118.92219257 C135.99962342 122.25447903 136.22860604 125.58647941 136.46212769 128.91824341 C137.31981861 141.17751221 138.15633861 153.42139751 138.21875 165.71484375 C138.22605637 166.52505981 138.23336273 167.33527588 138.2408905 168.17004395 C138.12404305 190.09414208 128.83201126 209.51061427 113.5 224.8125 C109.62297244 228.62116807 105.69761445 232.34582312 101.5625 235.875 C89.03117676 246.64325828 81.47754639 260.41007918 80 277 C79.8615519 280.2699897 79.85495578 283.53311274 79.87133789 286.80566406 C79.87412026 287.75596622 79.87690264 288.70626839 79.87976933 289.68536758 C79.96088269 301.83740259 80.5182256 313.97086434 81.05859375 326.109375 C81.16868014 328.65796291 81.27837776 331.20656764 81.38771057 333.75518799 C81.61606157 339.05648303 81.84727784 344.357644 82.08129883 349.65869141 C82.37909204 356.40454464 82.67151255 363.15061917 82.96211147 369.89678574 C83.24247251 376.40522694 83.52543975 382.9135548 83.80859375 389.421875 C83.86129362 390.63610893 83.91399349 391.85034286 83.96829033 393.10137177 C84.73323385 410.70174372 84.73323385 410.70174372 85.68727016 428.2926445 C86.08430044 435.02942898 86.21946513 441.75179394 86.25 448.5 C86.270625 449.67046875 86.29125 450.8409375 86.3125 452.046875 C86.37080662 465.04925131 83.37790532 473.4737713 74.3125 482.75 C66.05260179 489.04630483 56.0611577 490.15631789 46 489 C39.30929418 487.30729149 33.36151736 483.33074344 29 478 C20.7491397 462.74716892 22.85955601 445.98292205 23.5859375 429.25390625 C23.6480777 427.77037651 23.7099448 426.2868353 23.77156067 424.80328369 C23.90205999 421.67424997 24.03444914 418.54530427 24.16830444 415.41641235 C24.3788404 410.48897427 24.58289052 405.56127835 24.78637695 400.63354492 C25.36936584 386.56117579 25.96398948 372.48992127 26.64453125 358.421875 C27.60085737 338.42647923 28.23106106 318.44734485 28.35147095 298.42758179 C28.36692478 296.05320348 28.38852124 293.67885567 28.4168396 291.30459595 C28.747306 273.73734969 28.747306 273.73734969 24 257 C23.48179687 255.83082031 22.96359375 254.66164063 22.4296875 253.45703125 C16.92026912 244.0854829 9.91740596 237.28861413 1.5 230.5 C-16.10121215 216.29507808 -27.22746617 199.79412828 -30 177 C-30.32542208 172.41251746 -30.38109494 167.84819933 -30.375 163.25 C-30.37478851 162.5551651 -30.37457703 161.8603302 -30.37435913 161.1444397 C-30.30144797 135.99216335 -28.19747567 110.85391443 -26.46393871 85.77191925 C-26.08876829 80.32954176 -25.72599736 74.88641396 -25.36816406 69.44287109 C-24.84334868 61.46160535 -24.30376275 53.48144605 -23.7539978 45.50186157 C-23.54271515 42.43021845 -23.33681009 39.35828649 -23.13540649 36.28598022 C-22.89797651 32.67235333 -22.64785248 29.05982086 -22.38808823 25.44773293 C-22.25016897 23.48760509 -22.1249061 21.52659956 -22.00003052 19.56559753 C-21.91292816 18.38878922 -21.82582581 17.2119809 -21.73608398 15.99951172 C-21.66598618 14.98009491 -21.59588837 13.9606781 -21.52366638 12.91036987 C-20.68345231 8.2407294 -18.95012039 4.92575833 -15.5625 1.625 C-10.35459502 -0.75053561 -5.63181029 -0.74936296 0 0 Z " fill="#FEF2D4" transform="translate(457,253)"/>
<path d="M0 0 C0.33 0.99 0.66 1.98 1 3 C1.33 3.66 1.66 4.32 2 5 C2.09470958 6.47325641 2.12794281 7.95070515 2.12939453 9.42700195 C2.13412277 10.80532951 2.13412277 10.80532951 2.13894653 12.21150208 C2.1369223 13.2103392 2.13489807 14.20917633 2.1328125 15.23828125 C2.13376923 16.27002975 2.13472595 17.30177826 2.13571167 18.36479187 C2.13639366 20.55805522 2.13453805 22.75132058 2.13037109 24.94458008 C2.12508273 28.26062735 2.13028416 31.57653543 2.13671875 34.89257812 C2.14937739 64.01377622 2.14937739 64.01377622 -1 70 C-1.02314123 61.16844684 -1.0409242 52.33690406 -1.05181217 43.50532722 C-1.05703709 39.40474504 -1.06412768 35.30418355 -1.07543945 31.20361328 C-1.08628218 27.24845043 -1.09227979 23.29330752 -1.09487724 19.33813095 C-1.09672898 17.82701173 -1.10034482 16.31589363 -1.10573006 14.80478287 C-1.11295886 12.69291042 -1.11399016 10.58112105 -1.11352539 8.46923828 C-1.115746 7.26566681 -1.11796661 6.06209534 -1.12025452 4.822052 C-1 2 -1 2 0 0 Z " fill="#FC7730" transform="translate(554,259)"/>
<path d="M0 0 C0 13.2 0 26.4 0 40 C-0.66 40 -1.32 40 -2 40 C-1.67 40.99 -1.34 41.98 -1 43 C-0.91790208 44.77313851 -0.89253706 46.54920775 -0.90234375 48.32421875 C-0.90556641 49.35224609 -0.90878906 50.38027344 -0.91210938 51.43945312 C-0.92048828 52.51130859 -0.92886719 53.58316406 -0.9375 54.6875 C-0.94201172 55.77095703 -0.94652344 56.85441406 -0.95117188 57.97070312 C-0.96296257 60.64719085 -0.97941937 63.32356777 -1 66 C-1.33 66 -1.66 66 -2 66 C-2.81897035 57.72265957 -3.13676417 49.54936704 -3.09765625 41.234375 C-3.0962413 40.07496399 -3.09482635 38.91555298 -3.09336853 37.7210083 C-3.08782776 34.06397786 -3.07528675 30.40701154 -3.0625 26.75 C-3.05747733 24.25130298 -3.05291578 21.75260498 -3.04882812 19.25390625 C-3.03787782 13.16924942 -3.02119996 7.0846293 -3 1 C-1 0 -1 0 0 0 Z " fill="#FDE6C5" transform="translate(489,527)"/>
<path d="M0 0 C0.33 0 0.66 0 1 0 C1.97992216 15.74986001 1.92265041 31.24799334 1 47 C0.67 47 0.34 47 0 47 C-0.33 42.71 -0.66 38.42 -1 34 C-1.33 34 -1.66 34 -2 34 C-2 25.42 -2 16.84 -2 8 C-1.67 8 -1.34 8 -1 8 C-0.67 5.36 -0.34 2.72 0 0 Z " fill="#FA7938" transform="translate(751,388)"/>
<path d="M0 0 C0.99 0 1.98 0 3 0 C3.02700675 2.91672884 3.04684237 5.83320677 3.0625 8.75 C3.07087891 9.575 3.07925781 10.4 3.08789062 11.25 C3.09111328 12.04921875 3.09433594 12.8484375 3.09765625 13.671875 C3.10289307 14.4050293 3.10812988 15.13818359 3.11352539 15.89355469 C3 18 3 18 2.51367188 19.93164062 C1.88752525 22.45289263 1.78453071 24.82635321 1.68359375 27.421875 C1.64169922 28.44667969 1.59980469 29.47148438 1.55664062 30.52734375 C1.49766602 32.12255859 1.49766602 32.12255859 1.4375 33.75 C1.39431641 34.82894531 1.35113281 35.90789063 1.30664062 37.01953125 C1.20071011 39.67956428 1.09863579 42.33968812 1 45 C-5.17699395 33.54570803 -0.54315025 12.71347177 0 0 Z " fill="#FCE6D9" transform="translate(481,672)"/>
<path d="M0 0 C0.33 0 0.66 0 1 0 C1.10983009 15.70232284 1.08069161 31.32997158 0 47 C-0.33 47 -0.66 47 -1 47 C-1.16746774 42.19470128 -1.32804214 37.38924097 -1.48217773 32.58349609 C-1.53561099 30.94801607 -1.5909414 29.31259689 -1.64819336 27.67724609 C-1.73006761 25.32923506 -1.80515983 22.9810911 -1.87890625 20.6328125 C-1.90594131 19.89942657 -1.93297638 19.16604065 -1.96083069 18.41043091 C-2.11387171 13.22774341 -2.11387171 13.22774341 -1 11 C-0.7724985 9.12943209 -0.59037189 7.25314042 -0.4375 5.375 C-0.35371094 4.37210938 -0.26992188 3.36921875 -0.18359375 2.3359375 C-0.12300781 1.56507813 -0.06242187 0.79421875 0 0 Z " fill="#FA310C" transform="translate(484,568)"/>
<path d="M0 0 C0.66 0 1.32 0 2 0 C4.57996518 5.87094438 4.22552426 11.59609985 4.125 17.875 C4.11597656 18.94492187 4.10695313 20.01484375 4.09765625 21.1171875 C4.07419342 23.74502439 4.04136459 26.37239406 4 29 C3.67 29 3.34 29 3 29 C2.67 27.02 2.34 25.04 2 23 C1.67 23 1.34 23 1 23 C0.67 15.41 0.34 7.82 0 0 Z " fill="#FDEACB" transform="translate(462,258)"/>
<path d="M0 0 C0.99 0.66 1.98 1.32 3 2 C1.66666667 8.66666667 0.33333333 15.33333333 -1 22 C-1.66 22 -2.32 22 -3 22 C-3 23.65 -3 25.3 -3 27 C-3.33 27 -3.66 27 -4 27 C-3.55194549 17.69900635 -2.15662766 9.04698522 0 0 Z " fill="#FB7435" transform="translate(276,355)"/>
<path d="M0 0 C2.31 0 4.62 0 7 0 C6.796875 1.87109375 6.796875 1.87109375 6 4 C3.890625 5.16015625 3.890625 5.16015625 1.25 6.0625 C-2.44747594 7.4027026 -5.7081612 8.8054408 -9 11 C-9.66 10.34 -10.32 9.68 -11 9 C-10.2059375 8.51789063 -9.411875 8.03578125 -8.59375 7.5390625 C-7.5728125 6.90742188 -6.551875 6.27578125 -5.5 5.625 C-4.4790625 4.99851563 -3.458125 4.37203125 -2.40625 3.7265625 C-1.6121875 3.15679687 -0.818125 2.58703125 0 2 C0 1.34 0 0.68 0 0 Z " fill="#FB712E" transform="translate(392,200)"/>
<path d="M0 0 C2.63487842 1.73022035 3.7812588 3.54405938 5.39453125 6.2421875 C5.92691406 7.10585938 6.45929688 7.96953125 7.0078125 8.859375 C8.19013705 11.61956541 8.17111761 12.62854928 7.08203125 15.3671875 C2.26806708 8.82607588 2.26806708 8.82607588 1.14453125 6.0546875 C-0.54031417 3.37875654 -2.97653515 3.134518 -5.91796875 2.3671875 C-2.66988299 -0.88089826 -2.66988299 -0.88089826 0 0 Z " fill="#FA7130" transform="translate(309.91796875,539.6328125)"/>
<path d="M0 0 C3.72227756 3.29172752 4.24299291 6.73719394 5.3125 11.4375 C5.60350586 12.5831543 5.60350586 12.5831543 5.90039062 13.75195312 C6.07376953 14.49251953 6.24714844 15.23308594 6.42578125 15.99609375 C6.58473877 16.66825928 6.74369629 17.3404248 6.9074707 18.03295898 C7.02434661 20.51757429 6.25033437 21.88801639 5 24 C4.15642037 20.940229 3.3269798 17.8767954 2.5 14.8125 C2.26152344 13.94818359 2.02304687 13.08386719 1.77734375 12.19335938 C1.55175781 11.35224609 1.32617188 10.51113281 1.09375 9.64453125 C0.88427734 8.87471924 0.67480469 8.10490723 0.45898438 7.31176758 C-0.03538729 4.82176477 -0.07833519 2.53218501 0 0 Z " fill="#FA7434" transform="translate(275,456)"/>
<path d="M0 0 C0.99 0 1.98 0 3 0 C3.05401695 2.91691525 3.09368066 5.83282724 3.125 8.75 C3.15013672 9.9875 3.15013672 9.9875 3.17578125 11.25 C3.18222656 12.04921875 3.18867188 12.8484375 3.1953125 13.671875 C3.20578613 14.4050293 3.21625977 15.13818359 3.22705078 15.89355469 C2.96777544 18.29896076 2.19225925 19.91251494 1 22 C-0.17402193 14.66236293 -0.09377123 7.41834582 0 0 Z " fill="#FDE8C5" transform="translate(481,672)"/>
<path d="M0 0 C0.33 0 0.66 0 1 0 C1.25408976 3.79043181 1.47403593 7.58208053 1.6875 11.375 C1.76033203 12.45523437 1.83316406 13.53546875 1.90820312 14.6484375 C1.96298828 15.6796875 2.01777344 16.7109375 2.07421875 17.7734375 C2.13182373 18.72653809 2.18942871 19.67963867 2.2487793 20.66162109 C2.16668213 21.43328613 2.08458496 22.20495117 2 23 C1.01 23.66 0.02 24.32 -1 25 C-0.67 16.75 -0.34 8.5 0 0 Z " fill="#FDE7CC" transform="translate(590,346)"/>
<path d="M0 0 C0.66 0.33 1.32 0.66 2 1 C1.34 1.66 0.68 2.32 0 3 C-0.66 2.67 -1.32 2.34 -2 2 C-2.33 3.32 -2.66 4.64 -3 6 C-5.31 6.66 -7.62 7.32 -10 8 C-10 7.34 -10 6.68 -10 6 C-10.66 5.67 -11.32 5.34 -12 5 C-12 4.34 -12 3.68 -12 3 C-10.948125 2.87625 -9.89625 2.7525 -8.8125 2.625 C-5.09963555 2.15746422 -5.09963555 2.15746422 -2.1875 0.875 C-1.465625 0.58625 -0.74375 0.2975 0 0 Z " fill="#FB7734" transform="translate(420,189)"/>
<path d="M0 0 C-0.66 0 -1.32 0 -2 0 C-2 0.66 -2 1.32 -2 2 C-3.78710586 2.86366822 -5.5798465 3.71568594 -7.375 4.5625 C-8.37273437 5.03816406 -9.37046875 5.51382813 -10.3984375 6.00390625 C-11.25695312 6.33261719 -12.11546875 6.66132813 -13 7 C-13.66 6.67 -14.32 6.34 -15 6 C-15 5.01 -15 4.02 -15 3 C-13.06643218 2.30151736 -11.12797702 1.61655186 -9.1875 0.9375 C-8.10855469 0.55464844 -7.02960938 0.17179688 -5.91796875 -0.22265625 C-3 -1 -3 -1 0 0 Z " fill="#FC7432" transform="translate(440,184)"/>
<path d="M0 0 C2.37590142 3.70416126 2.20500286 6.92984573 2.125 11.25 C2.10695313 12.51328125 2.08890625 13.7765625 2.0703125 15.078125 C2.03550781 16.52445313 2.03550781 16.52445313 2 18 C1.01 18.33 0.02 18.66 -1 19 C-1.02705308 16.58325776 -1.04686438 14.1668206 -1.0625 11.75 C-1.07087891 11.06808594 -1.07925781 10.38617187 -1.08789062 9.68359375 C-1.10428392 6.30657446 -1.05628768 3.22708361 0 0 Z " fill="#FB7432" transform="translate(481,635)"/>
<path d="M0 0 C-2 3 -2 3 -4.75 3.75 C-8.05152616 4.00396355 -10.77303829 3.6914918 -14 3 C-9.7368213 0.15788087 -5.03577274 -2.0143091 0 0 Z " fill="#FB7B39" transform="translate(454,180)"/>
<path d="M0 0 C0.66 0.66 1.32 1.32 2 2 C2.99 2 3.98 2 5 2 C5.66 3.32 6.32 4.64 7 6 C4.69 6.33 2.38 6.66 0 7 C-0.66 5.35 -1.32 3.7 -2 2 C-1.34 1.34 -0.68 0.68 0 0 Z " fill="#F97533" transform="translate(640,208)"/>
<path d="M0 0 C0 3.63 0 7.26 0 11 C-0.99 11.33 -1.98 11.66 -3 12 C-3.33 8.37 -3.66 4.74 -4 1 C-1 0 -1 0 0 0 Z " fill="#FCE5C1" transform="translate(588,301)"/>
<path d="M0 0 C2.43816585 -0.0809723 4.87364384 -0.14046972 7.3125 -0.1875 C8.34793945 -0.22520508 8.34793945 -0.22520508 9.40429688 -0.26367188 C11.42578125 -0.29296875 11.42578125 -0.29296875 15 0 C15.99 0.99 16.98 1.98 18 3 C14.7 3 11.4 3 8 3 C8 2.67 8 2.34 8 2 C5.36 1.67 2.72 1.34 0 1 C0 0.67 0 0.34 0 0 Z " fill="#FC7833" transform="translate(482,173)"/>
<path d="M0 0 C0.66 0 1.32 0 2 0 C2 0.66 2 1.32 2 2 C3.32 2 4.64 2 6 2 C7.35439668 4.70879335 7.06501451 7.00933268 7 10 C3.66442368 7.0094833 1.84916079 4.06815373 0 0 Z " fill="#F97433" transform="translate(479,806)"/>
<path d="M0 0 C0 3.63195496 -0.95453155 4.74713911 -3 7.6875 C-3.556875 8.49574219 -4.11375 9.30398438 -4.6875 10.13671875 C-5.120625 10.75160156 -5.55375 11.36648438 -6 12 C-6.64453125 10.23046875 -6.64453125 10.23046875 -7 8 C-6.07421875 6.11328125 -6.07421875 6.11328125 -4.6875 4.3125 C-4.23761719 3.71050781 -3.78773438 3.10851562 -3.32421875 2.48828125 C-2 1 -2 1 0 0 Z " fill="#FA712E" transform="translate(557,782)"/>
<path d="M0 0 C0.66 0.33 1.32 0.66 2 1 C1.34 1.66 0.68 2.32 0 3 C0 3.99 0 4.98 0 6 C-2.5 8.6875 -2.5 8.6875 -5 11 C-5.66 10.67 -6.32 10.34 -7 10 C-6.505 9.566875 -6.01 9.13375 -5.5 8.6875 C-3.66781808 7.00259517 -3.66781808 7.00259517 -4 4 C-2 1.8125 -2 1.8125 0 0 Z " fill="#FA7835" transform="translate(357,226)"/>
<path d="M0 0 C0.268125 0.5775 0.53625 1.155 0.8125 1.75 C1.93012871 4.06163244 1.93012871 4.06163244 3.6875 6 C5 8 5 8 4.58203125 10.125 C4.38996094 10.74375 4.19789063 11.3625 4 12 C2.9944239 10.54550599 1.99569565 9.08627557 1 7.625 C0.443125 6.81289063 -0.11375 6.00078125 -0.6875 5.1640625 C-2 3 -2 3 -2 1 C-1.34 0.67 -0.68 0.34 0 0 Z " fill="#FA6F2F" transform="translate(460,771)"/>
<path d="M0 0 C0.66 1.32 1.32 2.64 2 4 C0.68 5.65 -0.64 7.3 -2 9 C-2.66 8.67 -3.32 8.34 -4 8 C-4 6.66666667 -4 5.33333333 -4 4 C-3.34 4 -2.68 4 -2 4 C-1.34 2.68 -0.68 1.36 0 0 Z M2 3 C4 4 4 4 4 4 Z " fill="#FB7334" transform="translate(331,251)"/>
<path d="M0 0 C3.81287042 1.44626119 5.32707177 3.30194812 7 7 C6.57421875 9.1640625 6.57421875 9.1640625 6 11 C5.66226562 10.44570313 5.32453125 9.89140625 4.9765625 9.3203125 C4.53054688 8.59585938 4.08453125 7.87140625 3.625 7.125 C3.18414062 6.40570312 2.74328125 5.68640625 2.2890625 4.9453125 C1.0146287 2.88206418 1.0146287 2.88206418 -1 1 C-0.67 0.67 -0.34 0.34 0 0 Z " fill="#FC7333" transform="translate(397,677)"/>
<path d="M0 0 C0 3.41321235 -0.66867466 4.39472885 -2.5 7.1875 C-2.9640625 7.90292969 -3.428125 8.61835937 -3.90625 9.35546875 C-4.2671875 9.89816406 -4.628125 10.44085937 -5 11 C-6.0859375 7.2578125 -6.0859375 7.2578125 -5.3125 4.9375 C-3.81535112 2.72742308 -2.20957187 1.47304791 0 0 Z " fill="#FC712F" transform="translate(635,660)"/>
<path d="M0 0 C2.4375 0.375 2.4375 0.375 5 1 C6.35439668 3.70879335 6.06501451 6.00933268 6 9 C3.59927045 6.11912454 1.52708963 3.43595166 0 0 Z " fill="#FC712F" transform="translate(351,607)"/>
<path d="M0 0 C0.33 0 0.66 0 1 0 C1.08133791 1.91595968 1.13934367 3.83291932 1.1875 5.75 C1.22230469 6.81734375 1.25710938 7.8846875 1.29296875 8.984375 C0.97082786 12.30027855 0.22851086 13.59016673 -2 16 C-1.85764543 14.27054347 -1.71095618 12.54144346 -1.5625 10.8125 C-1.48128906 9.84957031 -1.40007813 8.88664062 -1.31640625 7.89453125 C-1.02333849 5.21350398 -0.57296246 2.6337014 0 0 Z " fill="#FC5C19" transform="translate(748,442)"/>
<path d="M0 0 C0.99 0 1.98 0 3 0 C3.05416188 1.60379341 3.09286638 3.20811406 3.125 4.8125 C3.14820313 5.70582031 3.17140625 6.59914063 3.1953125 7.51953125 C3 10 3 10 1 13 C-0.32229189 10.35541621 -0.09677194 8.32238699 -0.0625 5.375 C-0.05347656 4.37210937 -0.04445313 3.36921875 -0.03515625 2.3359375 C-0.02355469 1.56507813 -0.01195312 0.79421875 0 0 Z " fill="#FDE6C5" transform="translate(431,332)"/>
<path d="M0 0 C0.66 0.33 1.32 0.66 2 1 C1.8125 2.875 1.8125 2.875 1 5 C-1.5625 6.25 -1.5625 6.25 -4 7 C-4.66 6.34 -5.32 5.68 -6 5 C-4.02 3.35 -2.04 1.7 0 0 Z " fill="#FB7433" transform="translate(373,214)"/>
<path d="M0 0 C1.32 0.66 2.64 1.32 4 2 C3.67 3.32 3.34 4.64 3 6 C1.35 6.33 -0.3 6.66 -2 7 C-1.125 2.25 -1.125 2.25 0 0 Z " fill="#F57735" transform="translate(434,735)"/>
<path d="M0 0 C0.33 0.66 0.66 1.32 1 2 C1.99 2.33 2.98 2.66 4 3 C4.73046875 5.06640625 4.73046875 5.06640625 5.1875 7.5625 C5.34605469 8.38878906 5.50460937 9.21507812 5.66796875 10.06640625 C5.77753906 10.70449219 5.88710938 11.34257813 6 12 C3.12753751 9.29650589 1.58862143 6.63113469 0 3 C0 2.01 0 1.02 0 0 Z " fill="#FA7938" transform="translate(292,508)"/>
<path d="M0 0 C2.12046792 3.53411321 2.53199289 6.94393835 3 11 C2.67 10.34 2.34 9.68 2 9 C-0.01669827 7.86649466 -0.01669827 7.86649466 -2 7 C-2 6.01 -2 5.02 -2 4 C-1.34 4 -0.68 4 0 4 C0 2.68 0 1.36 0 0 Z " fill="#FB7938" transform="translate(741,338)"/>
<path d="M0 0 C3.81287042 1.44626119 5.32707177 3.30194812 7 7 C6.57421875 9.1640625 6.57421875 9.1640625 6 11 C4.9944239 9.54550599 3.99569565 8.08627557 3 6.625 C2.443125 5.81289063 1.88625 5.00078125 1.3125 4.1640625 C0 2 0 2 0 0 Z " fill="#FA6F2F" transform="translate(404,688)"/>
<path d="M0 0 C0.33 0.66 0.66 1.32 1 2 C0.22265625 3.7265625 0.22265625 3.7265625 -0.9375 5.625 C-1.618125 6.73875 -2.29875 7.8525 -3 9 C-3.66 8.67 -4.32 8.34 -5 8 C-5.99 8.99 -6.98 9.98 -8 11 C-7.25 8.5625 -7.25 8.5625 -6 6 C-3.875 5.1875 -3.875 5.1875 -2 5 C-2 3.68 -2 2.36 -2 1 C-1.34 0.67 -0.68 0.34 0 0 Z " fill="#FB7836" transform="translate(725,517)"/>
<path d="M0 0 C1.67110042 2.96178773 2.32682752 5.37071192 2.625 8.75 C2.69976563 9.54921875 2.77453125 10.3484375 2.8515625 11.171875 C2.90054688 11.77515625 2.94953125 12.3784375 3 13 C2.67 12.34 2.34 11.68 2 11 C1.34 11 0.68 11 0 11 C-0.84098656 6.98195309 -1.05404945 3.98196457 0 0 Z " fill="#FB7F3E" transform="translate(745,353)"/>
<path d="M0 0 C0.66 0 1.32 0 2 0 C2.53229326 1.26607607 3.05044544 2.53810412 3.5625 3.8125 C3.85253906 4.52019531 4.14257812 5.22789062 4.44140625 5.95703125 C5 8 5 8 4 11 C3.34 10.67 2.68 10.34 2 10 C1.3671875 7.71484375 1.3671875 7.71484375 0.875 4.9375 C0.70742188 4.01839844 0.53984375 3.09929687 0.3671875 2.15234375 C0.24601563 1.44207031 0.12484375 0.73179687 0 0 Z " fill="#FA7130" transform="translate(736,327)"/>
<path d="M0 0 C3.67230705 3.07999946 4.56802365 5.2482602 5 10 C3.68 9.67 2.36 9.34 1 9 C0.67 6.03 0.34 3.06 0 0 Z " fill="#F9702F" transform="translate(335,580)"/>
<path d="M0 0 C0.33 0.66 0.66 1.32 1 2 C0.22265625 4.1640625 0.22265625 4.1640625 -0.9375 6.625 C-1.31777344 7.44226563 -1.69804688 8.25953125 -2.08984375 9.1015625 C-2.39019531 9.72804688 -2.69054687 10.35453125 -3 11 C-3.33 11 -3.66 11 -4 11 C-3.38461538 3.49230769 -3.38461538 3.49230769 -1.4375 1 C-0.963125 0.67 -0.48875 0.34 0 0 Z " fill="#FB7533" transform="translate(733,500)"/>
<path d="M0 0 C0.99 0 1.98 0 3 0 C3 2.97 3 5.94 3 9 C2.01 9.495 2.01 9.495 1 10 C-0.1577506 6.52674819 -0.06866652 3.63932552 0 0 Z " fill="#FDE9CA" transform="translate(432,319)"/>
<path d="M0 0 C0.6875 1.6875 0.6875 1.6875 1 4 C-0.25 6.6875 -0.25 6.6875 -2 9 C-2.99 9.33 -3.98 9.66 -5 10 C-3.66511872 6.40608886 -2.03977277 3.24509304 0 0 Z " fill="#FD7433" transform="translate(304,287)"/>
<path d="M0 0 C2.61500768 2.36595933 4.38999603 4.86049226 6 8 C5.67 8.66 5.34 9.32 5 10 C2.9754262 8.06745228 1.57894208 6.36841312 0 4 C0 2.68 0 1.36 0 0 Z " fill="#FC702F" transform="translate(718,288)"/>
<path d="M0 0 C0 3.99904969 -1.72586967 5.80200422 -4 9 C-4.8125 7.3125 -4.8125 7.3125 -5 5 C-2.5625 2.25 -2.5625 2.25 0 0 Z " fill="#FA7735" transform="translate(661,620)"/>
<path d="M0 0 C0.99 0 1.98 0 3 0 C4.06652192 2.30368736 5.06421005 4.64018187 6 7 C5.67 7.66 5.34 8.32 5 9 C3.35 6.03 1.7 3.06 0 0 Z " fill="#FA7635" transform="translate(423,718)"/>
<path d="M0 0 C1.41687119 4.25061356 0.19320039 6.71851625 -1 11 C-3 8 -3 8 -2.625 4.8125 C-2.41875 3.884375 -2.2125 2.95625 -2 2 C-1.34 2 -0.68 2 0 2 C0 1.34 0 0.68 0 0 Z " fill="#FA7B3A" transform="translate(745,464)"/>
<path d="M0 0 C0 3.99904969 -1.72586967 5.80200422 -4 9 C-4.8125 7.3125 -4.8125 7.3125 -5 5 C-2.5625 2.25 -2.5625 2.25 0 0 Z " fill="#FC5F1F" transform="translate(310,280)"/>
<path d="M0 0 C0.66 1.32 1.32 2.64 2 4 C1.01 4.99 0.02 5.98 -1 7 C-1.66 6.67 -2.32 6.34 -3 6 C-3 3 -3 3 -1.5 1.3125 C-0.7575 0.6628125 -0.7575 0.6628125 0 0 Z " fill="#FB7434" transform="translate(336,246)"/>
<path d="M0 0 C0.99 0.33 1.98 0.66 3 1 C3 3.31 3 5.62 3 8 C2.01 8 1.02 8 0 8 C0 5.36 0 2.72 0 0 Z " fill="#FCE6C4" transform="translate(433,305)"/>
<path d="M0 0 C1.75 0.125 1.75 0.125 4 1 C6.25 4.0625 6.25 4.0625 8 7 C4.2047869 5.50902342 2.38957269 3.24299151 0 0 Z " fill="#FD5B19" transform="translate(675,238)"/>
<path d="M0 0 C0.66 0.33 1.32 0.66 2 1 C1.67 1.66 1.34 2.32 1 3 C0.34 3 -0.32 3 -1 3 C-1.33 3.99 -1.66 4.98 -2 6 C-4.0625 6.6875 -4.0625 6.6875 -6 7 C-5.01 6.01 -4.02 5.02 -3 4 C-3.33 3.34 -3.66 2.68 -4 2 C-2.125 0.9375 -2.125 0.9375 0 0 Z " fill="#FA7936" transform="translate(406,195)"/>
<path d="M0 0 C0.33 0.66 0.66 1.32 1 2 C1.66 2.33 2.32 2.66 3 3 C2.01 3.66 1.02 4.32 0 5 C0 3.35 0 1.7 0 0 Z " fill="#F27B37" transform="translate(360,216)"/>
<path d="M0 0 C1.32 0.33 2.64 0.66 4 1 C3.01 1.99 2.02 2.98 1 4 C0.67 2.68 0.34 1.36 0 0 Z " fill="#F37A37" transform="translate(401,192)"/>
<path d="M0 0 C0.33 0 0.66 0 1 0 C1 2.31 1 4.62 1 7 C0.67 7 0.34 7 0 7 C0 4.69 0 2.38 0 0 Z " fill="#F17C3A" transform="translate(268,409)"/>
<path d="M0 0 C0.99 0.33 1.98 0.66 3 1 C2.01 1.99 1.02 2.98 0 4 C0 2.68 0 1.36 0 0 Z " fill="#EF7839" transform="translate(304,280)"/>
<path d="M0 0 C0.99 1.485 0.99 1.485 2 3 C1.34 3.66 0.68 4.32 0 5 C0 3.35 0 1.7 0 0 Z " fill="#F16F2E" transform="translate(440,747)"/>
<path d="M0 0 C0.66 0.33 1.32 0.66 2 1 C1.01 1.66 0.02 2.32 -1 3 C-0.67 2.01 -0.34 1.02 0 0 Z " fill="#F27634" transform="translate(377,652)"/>
<path d="M0 0 C0.99 0.495 0.99 0.495 2 1 C1.34 1.66 0.68 2.32 0 3 C0 2.01 0 1.02 0 0 Z " fill="#F07634" transform="translate(488,825)"/>
<path d="M0 0 C1 4 1 4 1 4 Z " fill="#F57431" transform="translate(420,716)"/>
<path d="M0 0 C0.66 0 1.32 0 2 0 C1.67 0.99 1.34 1.98 1 3 C0.67 2.01 0.34 1.02 0 0 Z " fill="#F17231" transform="translate(282,491)"/>
<path d="M0 0 C0.66 0 1.32 0 2 0 C1.67 0.99 1.34 1.98 1 3 C0.67 2.01 0.34 1.02 0 0 Z " fill="#F37635" transform="translate(273,461)"/>
<path d="M0 0 C1 4 1 4 1 4 Z " fill="#F17D3B" transform="translate(268,403)"/>
<path d="M0 0 C0.33 0.66 0.66 1.32 1 2 C0.34 1.67 -0.32 1.34 -1 1 C-0.67 0.67 -0.34 0.34 0 0 Z " fill="#ED7232" transform="translate(491,827)"/>
<path d="M0 0 C0.66 0 1.32 0 2 0 C1.67 0.66 1.34 1.32 1 2 C0.67 1.34 0.34 0.68 0 0 Z " fill="#F47231" transform="translate(481,813)"/>
<path d="M0 0 C0.66 0.66 1.32 1.32 2 2 C1.34 2 0.68 2 0 2 C0 1.34 0 0.68 0 0 Z " fill="#F37232" transform="translate(464,786)"/>
<path d="M0 0 C0.66 0 1.32 0 2 0 C1.67 0.66 1.34 1.32 1 2 C0.67 1.34 0.34 0.68 0 0 Z " fill="#EF7331" transform="translate(566,772)"/>
<path d="M0 0 C0.33 0.66 0.66 1.32 1 2 C0.34 1.67 -0.32 1.34 -1 1 C-0.67 0.67 -0.34 0.34 0 0 Z " fill="#F47232" transform="translate(436,742)"/>
<path d="M0 0 C0.33 0.66 0.66 1.32 1 2 C0.34 1.67 -0.32 1.34 -1 1 C-0.67 0.67 -0.34 0.34 0 0 Z " fill="#F56F2D" transform="translate(417,711)"/>
<path d="M0 0 C0.33 0.66 0.66 1.32 1 2 C0.34 1.67 -0.32 1.34 -1 1 C-0.67 0.67 -0.34 0.34 0 0 Z " fill="#F37433" transform="translate(402,691)"/>
<path d="M0 0 C0.33 0.66 0.66 1.32 1 2 C0.34 1.67 -0.32 1.34 -1 1 C-0.67 0.67 -0.34 0.34 0 0 Z " fill="#F37533" transform="translate(639,661)"/>
<path d="M0 0 C3 1 3 1 3 1 Z " fill="#F37433" transform="translate(378,654)"/>
<path d="M0 0 C0.66 0 1.32 0 2 0 C1.67 0.66 1.34 1.32 1 2 C0.67 1.34 0.34 0.68 0 0 Z " fill="#F27534" transform="translate(362,628)"/>
<path d="M0 0 C0.33 0.66 0.66 1.32 1 2 C0.34 1.67 -0.32 1.34 -1 1 C-0.67 0.67 -0.34 0.34 0 0 Z " fill="#F37433" transform="translate(353,613)"/>
<path d="M0 0 C0.99 0.495 0.99 0.495 2 1 C1.01 1.495 1.01 1.495 0 2 C0 1.34 0 0.68 0 0 Z " fill="#F47533" transform="translate(344,602)"/>
<path d="M0 0 C0.66 0.66 1.32 1.32 2 2 C1.34 2 0.68 2 0 2 C0 1.34 0 0.68 0 0 Z " fill="#F56E2D" transform="translate(320,562)"/>
<path d="" fill="#F17838" transform="translate(0,0)"/>
<path d="M0 0 C0.66 0 1.32 0 2 0 C1.67 0.66 1.34 1.32 1 2 C0.67 1.34 0.34 0.68 0 0 Z " fill="#F37736" transform="translate(275,470)"/>
<path d="M0 0 C3 1 3 1 3 1 Z " fill="#F17937" transform="translate(312,264)"/>
<path d="" fill="#F17837" transform="translate(0,0)"/>
<path d="M0 0 C3 1 3 1 3 1 Z " fill="#F47937" transform="translate(683,240)"/>
<path d="M0 0 C0.99 0.495 0.99 0.495 2 1 C1.01 1.495 1.01 1.495 0 2 C0 1.34 0 0.68 0 0 Z " fill="#F17C37" transform="translate(384,202)"/>
<path d="M0 0 C0.33 0.66 0.66 1.32 1 2 C0.34 1.67 -0.32 1.34 -1 1 C-0.67 0.67 -0.34 0.34 0 0 Z " fill="#F37736" transform="translate(613,192)"/>
<path d="M0 0 C3 1 3 1 3 1 Z " fill="#EE7635" transform="translate(589,184)"/>
<path d="" fill="#F27A37" transform="translate(0,0)"/>
<path d="" fill="#EE7334" transform="translate(0,0)"/>
<path d="" fill="#F17333" transform="translate(0,0)"/>
<path d="" fill="#F17332" transform="translate(0,0)"/>
<path d="" fill="#F2712E" transform="translate(0,0)"/>
<path d="" fill="#F27430" transform="translate(0,0)"/>
<path d="" fill="#F57230" transform="translate(0,0)"/>
<path d="M0 0 C2 1 2 1 2 1 Z " fill="#F57431" transform="translate(630,675)"/>
<path d="M0 0 C2 1 2 1 2 1 Z " fill="#F47432" transform="translate(392,675)"/>
<path d="" fill="#F57736" transform="translate(0,0)"/>
<path d="" fill="#EF7433" transform="translate(0,0)"/>
<path d="" fill="#F5712F" transform="translate(0,0)"/>
<path d="" fill="#F37533" transform="translate(0,0)"/>
<path d="" fill="#F57532" transform="translate(0,0)"/>
<path d="M0 0 C2 1 2 1 2 1 Z " fill="#F47734" transform="translate(700,566)"/>
<path d="" fill="#F37232" transform="translate(0,0)"/>
<path d="" fill="#ED7335" transform="translate(0,0)"/>
<path d="M0 0 C2 1 2 1 2 1 Z " fill="#F37332" transform="translate(296,523)"/>
<path d="M0 0 C2 1 2 1 2 1 Z " fill="#F27A37" transform="translate(731,510)"/>
<path d="" fill="#EC7233" transform="translate(0,0)"/>
<path d="" fill="#F46F2C" transform="translate(0,0)"/>
<path d="M0 0 C2 1 2 1 2 1 Z " fill="#F37637" transform="translate(272,458)"/>
<path d="" fill="#F27736" transform="translate(0,0)"/>
<path d="" fill="#EF783B" transform="translate(0,0)"/>
<path d="" fill="#F17B3E" transform="translate(0,0)"/>
<path d="" fill="#F27A38" transform="translate(0,0)"/>
<path d="M0 0 C2 1 2 1 2 1 Z " fill="#F07A3B" transform="translate(273,354)"/>
<path d="" fill="#F07838" transform="translate(0,0)"/>
<path d="" fill="#F17637" transform="translate(0,0)"/>
<path d="" fill="#F17534" transform="translate(0,0)"/>
<path d="" fill="#F27837" transform="translate(0,0)"/>
<path d="" fill="#EF7635" transform="translate(0,0)"/>
<path d="" fill="#F27B38" transform="translate(0,0)"/>
<path d="M0 0 C2 1 2 1 2 1 Z " fill="#F27536" transform="translate(379,208)"/>
<path d="M0 0 C2 1 2 1 2 1 Z " fill="#F07835" transform="translate(385,204)"/>
<path d="M0 0 C2 1 2 1 2 1 Z " fill="#F37937" transform="translate(428,184)"/>
<path d="M0 0 C2 1 2 1 2 1 Z " fill="#F47937" transform="translate(565,176)"/>
<path d="M0 0 C2 1 2 1 2 1 Z " fill="#F67D39" transform="translate(514,170)"/>
<path d="" fill="#A08E4D" transform="translate(0,0)"/>
<path d="" fill="#A48F4E" transform="translate(0,0)"/>
<path d="" fill="#A58E4F" transform="translate(0,0)"/>
<path d="" fill="#A28D4F" transform="translate(0,0)"/>
<path d="" fill="#AD8E50" transform="translate(0,0)"/>
<path d="" fill="#A18E4E" transform="translate(0,0)"/>
<path d="" fill="#AA8F50" transform="translate(0,0)"/>
<path d="" fill="#A18D4F" transform="translate(0,0)"/>
<path d="" fill="#A58E51" transform="translate(0,0)"/>
<path d="" fill="#AA8F50" transform="translate(0,0)"/>
<path d="" fill="#A1914E" transform="translate(0,0)"/>
<path d="" fill="#A08E4D" transform="translate(0,0)"/>
<path d="" fill="#AE8D4F" transform="translate(0,0)"/>
<path d="" fill="#9F8F4F" transform="translate(0,0)"/>
<path d="" fill="#9F8E4D" transform="translate(0,0)"/>
<path d="" fill="#A28E4D" transform="translate(0,0)"/>
<path d="" fill="#AF8F50" transform="translate(0,0)"/>
<path d="" fill="#9E8D4C" transform="translate(0,0)"/>
<path d="" fill="#9F8E4D" transform="translate(0,0)"/>
<path d="" fill="#9F8E4D" transform="translate(0,0)"/>
<path d="" fill="#9D8D4B" transform="translate(0,0)"/>
<path d="" fill="#9F8D4C" transform="translate(0,0)"/>
<path d="" fill="#A38D4F" transform="translate(0,0)"/>
<path d="" fill="#AD8F4E" transform="translate(0,0)"/>
<path d="" fill="#B38E50" transform="translate(0,0)"/>
<path d="" fill="#B18D4F" transform="translate(0,0)"/>
<path d="" fill="#9E8D4D" transform="translate(0,0)"/>
<path d="" fill="#B58E50" transform="translate(0,0)"/>
<path d="" fill="#9F8F4E" transform="translate(0,0)"/>
<path d="" fill="#A19150" transform="translate(0,0)"/>
<path d="" fill="#A08E4F" transform="translate(0,0)"/>
<path d="" fill="#9F8D4D" transform="translate(0,0)"/>
<path d="" fill="#9F8F4C" transform="translate(0,0)"/>
<path d="" fill="#A38D4E" transform="translate(0,0)"/>
<path d="" fill="#B08E4C" transform="translate(0,0)"/>
<path d="" fill="#AF8F50" transform="translate(0,0)"/>
<path d="" fill="#A48E4E" transform="translate(0,0)"/>
<path d="" fill="#9F8E4D" transform="translate(0,0)"/>
<path d="" fill="#9E8E4C" transform="translate(0,0)"/>
<path d="" fill="#A08D4D" transform="translate(0,0)"/>
<path d="" fill="#A58F4D" transform="translate(0,0)"/>
<path d="" fill="#B48E50" transform="translate(0,0)"/>
<path d="" fill="#B0904F" transform="translate(0,0)"/>
<path d="" fill="#A78D4F" transform="translate(0,0)"/>
<path d="" fill="#9F8F4D" transform="translate(0,0)"/>
<path d="" fill="#9F8C4D" transform="translate(0,0)"/>
<path d="" fill="#A58D4D" transform="translate(0,0)"/>
<path d="" fill="#AA8E4E" transform="translate(0,0)"/>
<path d="" fill="#A68E4F" transform="translate(0,0)"/>
<path d="" fill="#9F8F4D" transform="translate(0,0)"/>
<path d="" fill="#A08E4D" transform="translate(0,0)"/>
<path d="" fill="#A48D4E" transform="translate(0,0)"/>
<path d="" fill="#A19050" transform="translate(0,0)"/>
<path d="" fill="#A9904F" transform="translate(0,0)"/>
<path d="" fill="#A18F4F" transform="translate(0,0)"/>
<path d="" fill="#A28D4F" transform="translate(0,0)"/>
<path d="" fill="#A08F4E" transform="translate(0,0)"/>
<path d="" fill="#A18F4E" transform="translate(0,0)"/>
<path d="" fill="#B08D4F" transform="translate(0,0)"/>
<path d="" fill="#A49050" transform="translate(0,0)"/>
<path d="" fill="#EA7A3C" transform="translate(0,0)"/>
<path d="" fill="#EB7C3B" transform="translate(0,0)"/>
<path d="" fill="#EF7739" transform="translate(0,0)"/>
<path d="" fill="#ED7638" transform="translate(0,0)"/>
<path d="" fill="#EF7536" transform="translate(0,0)"/>
<path d="" fill="#F07635" transform="translate(0,0)"/>
<path d="" fill="#BB8E4F" transform="translate(0,0)"/>
<path d="" fill="#F07536" transform="translate(0,0)"/>
<path d="" fill="#EC7435" transform="translate(0,0)"/>
<path d="" fill="#B39250" transform="translate(0,0)"/>
<path d="" fill="#B48F50" transform="translate(0,0)"/>
<path d="" fill="#E0823E" transform="translate(0,0)"/>
<path d="" fill="#F27434" transform="translate(0,0)"/>
<path d="" fill="#A39050" transform="translate(0,0)"/>
<path d="" fill="#EF7431" transform="translate(0,0)"/>
<path d="" fill="#A2914F" transform="translate(0,0)"/>
<path d="" fill="#F17334" transform="translate(0,0)"/>
<path d="" fill="#EF7130" transform="translate(0,0)"/>
<path d="" fill="#ED6F35" transform="translate(0,0)"/>
<path d="" fill="#A4924F" transform="translate(0,0)"/>
<path d="" fill="#F17233" transform="translate(0,0)"/>
<path d="" fill="#F3712F" transform="translate(0,0)"/>
<path d="" fill="#F17433" transform="translate(0,0)"/>
<path d="" fill="#EF7231" transform="translate(0,0)"/>
<path d="" fill="#F07333" transform="translate(0,0)"/>
<path d="" fill="#EA7134" transform="translate(0,0)"/>
<path d="" fill="#B29251" transform="translate(0,0)"/>
<path d="" fill="#F2702E" transform="translate(0,0)"/>
<path d="" fill="#A99151" transform="translate(0,0)"/>
<path d="" fill="#F17432" transform="translate(0,0)"/>
<path d="" fill="#A69150" transform="translate(0,0)"/>
<path d="" fill="#F47335" transform="translate(0,0)"/>
<path d="" fill="#F4742F" transform="translate(0,0)"/>
<path d="" fill="#F27431" transform="translate(0,0)"/>
<path d="" fill="#F37732" transform="translate(0,0)"/>
<path d="" fill="#A89250" transform="translate(0,0)"/>
<path d="" fill="#BD9151" transform="translate(0,0)"/>
<path d="" fill="#F47232" transform="translate(0,0)"/>
<path d="" fill="#AA9151" transform="translate(0,0)"/>
<path d="" fill="#A69251" transform="translate(0,0)"/>
<path d="" fill="#F2712E" transform="translate(0,0)"/>
<path d="" fill="#A69153" transform="translate(0,0)"/>
<path d="" fill="#F5732E" transform="translate(0,0)"/>
<path d="" fill="#F57434" transform="translate(0,0)"/>
<path d="" fill="#EF7235" transform="translate(0,0)"/>
<path d="" fill="#F77731" transform="translate(0,0)"/>
<path d="" fill="#AA9153" transform="translate(0,0)"/>
<path d="" fill="#F27632" transform="translate(0,0)"/>
<path d="" fill="#F47436" transform="translate(0,0)"/>
<path d="" fill="#F37530" transform="translate(0,0)"/>
<path d="" fill="#F47232" transform="translate(0,0)"/>
<path d="" fill="#F37533" transform="translate(0,0)"/>
<path d="" fill="#F16C2A" transform="translate(0,0)"/>
<path d="" fill="#A89253" transform="translate(0,0)"/>
<path d="" fill="#A69351" transform="translate(0,0)"/>
<path d="" fill="#F57633" transform="translate(0,0)"/>
<path d="" fill="#F57634" transform="translate(0,0)"/>
<path d="" fill="#AA9452" transform="translate(0,0)"/>
<path d="" fill="#AB9152" transform="translate(0,0)"/>
<path d="" fill="#F37734" transform="translate(0,0)"/>
<path d="" fill="#F47732" transform="translate(0,0)"/>
<path d="" fill="#F17432" transform="translate(0,0)"/>
<path d="" fill="#B69352" transform="translate(0,0)"/>
<path d="" fill="#B59153" transform="translate(0,0)"/>
<path d="" fill="#F4702E" transform="translate(0,0)"/>
<path d="" fill="#F47430" transform="translate(0,0)"/>
<path d="" fill="#F67432" transform="translate(0,0)"/>
<path d="" fill="#F47432" transform="translate(0,0)"/>
<path d="" fill="#E76D30" transform="translate(0,0)"/>
<path d="" fill="#F57934" transform="translate(0,0)"/>
<path d="" fill="#F67432" transform="translate(0,0)"/>
<path d="" fill="#F37934" transform="translate(0,0)"/>
<path d="" fill="#F36F31" transform="translate(0,0)"/>
<path d="" fill="#F27535" transform="translate(0,0)"/>
<path d="" fill="#F27532" transform="translate(0,0)"/>
<path d="" fill="#C19050" transform="translate(0,0)"/>
<path d="" fill="#F47534" transform="translate(0,0)"/>
<path d="" fill="#F37635" transform="translate(0,0)"/>
<path d="" fill="#F67331" transform="translate(0,0)"/>
<path d="" fill="#F37736" transform="translate(0,0)"/>
<path d="" fill="#F07432" transform="translate(0,0)"/>
<path d="" fill="#F47532" transform="translate(0,0)"/>
<path d="" fill="#AB9353" transform="translate(0,0)"/>
<path d="" fill="#F47634" transform="translate(0,0)"/>
<path d="" fill="#F37532" transform="translate(0,0)"/>
<path d="" fill="#F37532" transform="translate(0,0)"/>
<path d="" fill="#F2732D" transform="translate(0,0)"/>
<path d="" fill="#F57733" transform="translate(0,0)"/>
<path d="" fill="#F17531" transform="translate(0,0)"/>
<path d="" fill="#EE7937" transform="translate(0,0)"/>
<path d="" fill="#F47733" transform="translate(0,0)"/>
<path d="" fill="#B39251" transform="translate(0,0)"/>
<path d="" fill="#AB9557" transform="translate(0,0)"/>
<path d="" fill="#F57635" transform="translate(0,0)"/>
<path d="" fill="#F27533" transform="translate(0,0)"/>
<path d="" fill="#F57535" transform="translate(0,0)"/>
<path d="" fill="#F36D2C" transform="translate(0,0)"/>
<path d="" fill="#F77431" transform="translate(0,0)"/>
<path d="" fill="#AF9354" transform="translate(0,0)"/>
<path d="" fill="#B29353" transform="translate(0,0)"/>
<path d="" fill="#CC8F4E" transform="translate(0,0)"/>
<path d="" fill="#F57835" transform="translate(0,0)"/>
<path d="" fill="#F67430" transform="translate(0,0)"/>
<path d="" fill="#B79352" transform="translate(0,0)"/>
<path d="" fill="#F77634" transform="translate(0,0)"/>
<path d="" fill="#AD9757" transform="translate(0,0)"/>
<path d="" fill="#C09151" transform="translate(0,0)"/>
<path d="" fill="#F47534" transform="translate(0,0)"/>
<path d="" fill="#CA8C4D" transform="translate(0,0)"/>
<path d="" fill="#AB9554" transform="translate(0,0)"/>
<path d="" fill="#F57833" transform="translate(0,0)"/>
<path d="" fill="#F47A36" transform="translate(0,0)"/>
<path d="" fill="#AD9655" transform="translate(0,0)"/>
<path d="" fill="#BA9151" transform="translate(0,0)"/>
<path d="" fill="#F37734" transform="translate(0,0)"/>
<path d="" fill="#F36E2E" transform="translate(0,0)"/>
<path d="" fill="#F36D2B" transform="translate(0,0)"/>
<path d="" fill="#F3722F" transform="translate(0,0)"/>
<path d="" fill="#B69252" transform="translate(0,0)"/>
<path d="" fill="#F37632" transform="translate(0,0)"/>
<path d="" fill="#F57532" transform="translate(0,0)"/>
<path d="" fill="#F47433" transform="translate(0,0)"/>
<path d="" fill="#F27631" transform="translate(0,0)"/>
<path d="" fill="#F67532" transform="translate(0,0)"/>
<path d="" fill="#AF9656" transform="translate(0,0)"/>
<path d="" fill="#F57635" transform="translate(0,0)"/>
<path d="" fill="#F17637" transform="translate(0,0)"/>
<path d="" fill="#F47736" transform="translate(0,0)"/>
<path d="" fill="#F47835" transform="translate(0,0)"/>
<path d="" fill="#F37333" transform="translate(0,0)"/>
<path d="" fill="#AF9655" transform="translate(0,0)"/>
<path d="" fill="#D38848" transform="translate(0,0)"/>
<path d="" fill="#F17433" transform="translate(0,0)"/>
<path d="" fill="#F0672D" transform="translate(0,0)"/>
<path d="" fill="#F67433" transform="translate(0,0)"/>
<path d="" fill="#AE9654" transform="translate(0,0)"/>
<path d="" fill="#F8702D" transform="translate(0,0)"/>
<path d="" fill="#F37833" transform="translate(0,0)"/>
<path d="" fill="#F37533" transform="translate(0,0)"/>
<path d="" fill="#F77432" transform="translate(0,0)"/>
<path d="" fill="#AE9654" transform="translate(0,0)"/>
<path d="" fill="#F37833" transform="translate(0,0)"/>
<path d="" fill="#F67530" transform="translate(0,0)"/>
<path d="" fill="#F56E2A" transform="translate(0,0)"/>
<path d="" fill="#E97435" transform="translate(0,0)"/>
<path d="" fill="#F37535" transform="translate(0,0)"/>
<path d="" fill="#F37030" transform="translate(0,0)"/>
<path d="" fill="#F47533" transform="translate(0,0)"/>
<path d="" fill="#F47434" transform="translate(0,0)"/>
<path d="" fill="#F27434" transform="translate(0,0)"/>
<path d="" fill="#F27433" transform="translate(0,0)"/>
<path d="" fill="#BC9254" transform="translate(0,0)"/>
<path d="" fill="#F57432" transform="translate(0,0)"/>
<path d="" fill="#F07333" transform="translate(0,0)"/>
<path d="" fill="#F47836" transform="translate(0,0)"/>
<path d="" fill="#B09655" transform="translate(0,0)"/>
<path d="" fill="#BC9354" transform="translate(0,0)"/>
<path d="" fill="#F47230" transform="translate(0,0)"/>
<path d="" fill="#F27935" transform="translate(0,0)"/>
<path d="" fill="#F5702F" transform="translate(0,0)"/>
<path d="" fill="#F47736" transform="translate(0,0)"/>
<path d="" fill="#F5702E" transform="translate(0,0)"/>
<path d="" fill="#F4702E" transform="translate(0,0)"/>
<path d="" fill="#F57836" transform="translate(0,0)"/>
<path d="" fill="#F07031" transform="translate(0,0)"/>
<path d="" fill="#EC7436" transform="translate(0,0)"/>
<path d="" fill="#B09656" transform="translate(0,0)"/>
<path d="" fill="#F47B36" transform="translate(0,0)"/>
<path d="" fill="#F17736" transform="translate(0,0)"/>
<path d="" fill="#F17130" transform="translate(0,0)"/>
<path d="" fill="#F17533" transform="translate(0,0)"/>
<path d="" fill="#F47636" transform="translate(0,0)"/>
<path d="" fill="#AE9757" transform="translate(0,0)"/>
<path d="" fill="#EF7536" transform="translate(0,0)"/>
<path d="" fill="#F17938" transform="translate(0,0)"/>
<path d="" fill="#F2712F" transform="translate(0,0)"/>
<path d="" fill="#F17A3A" transform="translate(0,0)"/>
<path d="" fill="#EB7535" transform="translate(0,0)"/>
<path d="" fill="#F07A35" transform="translate(0,0)"/>
<path d="" fill="#B89455" transform="translate(0,0)"/>
<path d="" fill="#BE9352" transform="translate(0,0)"/>
<path d="" fill="#F27738" transform="translate(0,0)"/>
<path d="" fill="#F17C3E" transform="translate(0,0)"/>
<path d="" fill="#F07132" transform="translate(0,0)"/>
<path d="" fill="#EC7D3D" transform="translate(0,0)"/>
<path d="" fill="#B39556" transform="translate(0,0)"/>
<path d="" fill="#B79555" transform="translate(0,0)"/>
<path d="" fill="#B49554" transform="translate(0,0)"/>
<path d="" fill="#B09756" transform="translate(0,0)"/>
<path d="" fill="#B29556" transform="translate(0,0)"/>
<path d="" fill="#AF9757" transform="translate(0,0)"/>
<path d="" fill="#EF8040" transform="translate(0,0)"/>
<path d="" fill="#C49151" transform="translate(0,0)"/>
<path d="" fill="#F07E3B" transform="translate(0,0)"/>
<path d="" fill="#C4914F" transform="translate(0,0)"/>
<path d="" fill="#F37632" transform="translate(0,0)"/>
<path d="" fill="#B39557" transform="translate(0,0)"/>
<path d="" fill="#F17A39" transform="translate(0,0)"/>
<path d="" fill="#BE9455" transform="translate(0,0)"/>
<path d="" fill="#D58D4C" transform="translate(0,0)"/>
<path d="" fill="#B79555" transform="translate(0,0)"/>
<path d="" fill="#B19757" transform="translate(0,0)"/>
<path d="" fill="#B89454" transform="translate(0,0)"/>
<path d="" fill="#AE9756" transform="translate(0,0)"/>
<path d="" fill="#BB9657" transform="translate(0,0)"/>
<path d="" fill="#C29252" transform="translate(0,0)"/>
<path d="" fill="#B99555" transform="translate(0,0)"/>
<path d="" fill="#B69654" transform="translate(0,0)"/>
<path d="" fill="#F37937" transform="translate(0,0)"/>
<path d="" fill="#B59556" transform="translate(0,0)"/>
<path d="" fill="#ED793A" transform="translate(0,0)"/>
<path d="" fill="#F17838" transform="translate(0,0)"/>
<path d="" fill="#AF9655" transform="translate(0,0)"/>
<path d="" fill="#F17D38" transform="translate(0,0)"/>
<path d="" fill="#F07C3C" transform="translate(0,0)"/>
<path d="" fill="#F07A3C" transform="translate(0,0)"/>
<path d="" fill="#F17C3B" transform="translate(0,0)"/>
<path d="" fill="#B09755" transform="translate(0,0)"/>
<path d="" fill="#F17835" transform="translate(0,0)"/>
<path d="" fill="#AF9655" transform="translate(0,0)"/>
<path d="" fill="#B19655" transform="translate(0,0)"/>
<path d="" fill="#B29556" transform="translate(0,0)"/>
<path d="" fill="#C09453" transform="translate(0,0)"/>
<path d="" fill="#AE9657" transform="translate(0,0)"/>
<path d="" fill="#ED7333" transform="translate(0,0)"/>
<path d="" fill="#F17B3A" transform="translate(0,0)"/>
<path d="" fill="#AF9756" transform="translate(0,0)"/>
<path d="" fill="#AE9754" transform="translate(0,0)"/>
<path d="" fill="#F57B38" transform="translate(0,0)"/>
<path d="" fill="#B29656" transform="translate(0,0)"/>
<path d="" fill="#F07B38" transform="translate(0,0)"/>
<path d="" fill="#F47B37" transform="translate(0,0)"/>
<path d="" fill="#F57B36" transform="translate(0,0)"/>
<path d="" fill="#F27A38" transform="translate(0,0)"/>
<path d="" fill="#F07A3B" transform="translate(0,0)"/>
<path d="" fill="#F07B35" transform="translate(0,0)"/>
<path d="" fill="#EF7A37" transform="translate(0,0)"/>
<path d="" fill="#ED7536" transform="translate(0,0)"/>
<path d="" fill="#F47936" transform="translate(0,0)"/>
<path d="" fill="#F27C39" transform="translate(0,0)"/>
<path d="" fill="#F27B39" transform="translate(0,0)"/>
<path d="" fill="#F1712E" transform="translate(0,0)"/>
<path d="" fill="#BB9453" transform="translate(0,0)"/>
<path d="" fill="#B09556" transform="translate(0,0)"/>
<path d="" fill="#F17939" transform="translate(0,0)"/>
<path d="" fill="#F17831" transform="translate(0,0)"/>
<path d="" fill="#D58B48" transform="translate(0,0)"/>
<path d="" fill="#F17838" transform="translate(0,0)"/>
<path d="" fill="#EF7F41" transform="translate(0,0)"/>
<path d="" fill="#F57A35" transform="translate(0,0)"/>
<path d="" fill="#F47A37" transform="translate(0,0)"/>
<path d="" fill="#EF7735" transform="translate(0,0)"/>
<path d="" fill="#AF9655" transform="translate(0,0)"/>
<path d="" fill="#F07936" transform="translate(0,0)"/>
<path d="" fill="#F07734" transform="translate(0,0)"/>
<path d="" fill="#F27A36" transform="translate(0,0)"/>
<path d="" fill="#F07833" transform="translate(0,0)"/>
<path d="" fill="#F67736" transform="translate(0,0)"/>
<path d="" fill="#F47938" transform="translate(0,0)"/>
<path d="" fill="#F27C3B" transform="translate(0,0)"/>
<path d="" fill="#B09455" transform="translate(0,0)"/>
<path d="" fill="#F47333" transform="translate(0,0)"/>
<path d="" fill="#F37A36" transform="translate(0,0)"/>
<path d="" fill="#F37432" transform="translate(0,0)"/>
<path d="" fill="#F07836" transform="translate(0,0)"/>
<path d="" fill="#F37834" transform="translate(0,0)"/>
<path d="" fill="#F27B39" transform="translate(0,0)"/>
<path d="" fill="#F37B37" transform="translate(0,0)"/>
<path d="" fill="#B29454" transform="translate(0,0)"/>
<path d="" fill="#F27735" transform="translate(0,0)"/>
<path d="" fill="#F46A28" transform="translate(0,0)"/>
<path d="" fill="#EF6B2D" transform="translate(0,0)"/>
<path d="" fill="#EF7737" transform="translate(0,0)"/>
<path d="" fill="#F47834" transform="translate(0,0)"/>
<path d="" fill="#F37736" transform="translate(0,0)"/>
<path d="" fill="#F67A36" transform="translate(0,0)"/>
<path d="" fill="#F47937" transform="translate(0,0)"/>
<path d="" fill="#EF7939" transform="translate(0,0)"/>
<path d="" fill="#F37837" transform="translate(0,0)"/>
<path d="" fill="#F27935" transform="translate(0,0)"/>
<path d="" fill="#F27531" transform="translate(0,0)"/>
<path d="" fill="#F37936" transform="translate(0,0)"/>
<path d="" fill="#F17838" transform="translate(0,0)"/>
<path d="" fill="#F27B3B" transform="translate(0,0)"/>
<path d="" fill="#F67C34" transform="translate(0,0)"/>
<path d="" fill="#B69153" transform="translate(0,0)"/>
<path d="" fill="#F47735" transform="translate(0,0)"/>
<path d="" fill="#F27938" transform="translate(0,0)"/>
<path d="" fill="#B29354" transform="translate(0,0)"/>
<path d="" fill="#F37739" transform="translate(0,0)"/>
<path d="" fill="#EC7838" transform="translate(0,0)"/>
<path d="" fill="#F37932" transform="translate(0,0)"/>
<path d="" fill="#F47E38" transform="translate(0,0)"/>
<path d="" fill="#F37536" transform="translate(0,0)"/>
<path d="" fill="#F47B37" transform="translate(0,0)"/>
<path d="" fill="#F17939" transform="translate(0,0)"/>
<path d="" fill="#F47835" transform="translate(0,0)"/>
<path d="" fill="#B39252" transform="translate(0,0)"/>
<path d="" fill="#AC9355" transform="translate(0,0)"/>
<path d="" fill="#AB9556" transform="translate(0,0)"/>
<path d="" fill="#EF7C34" transform="translate(0,0)"/>
<path d="" fill="#F27B39" transform="translate(0,0)"/>
<path d="" fill="#F47D38" transform="translate(0,0)"/>
<path d="" fill="#AA9456" transform="translate(0,0)"/>
<path d="" fill="#F37D38" transform="translate(0,0)"/>
<path d="" fill="#F47C37" transform="translate(0,0)"/>
<path d="" fill="#F17B36" transform="translate(0,0)"/>
<path d="" fill="#F37E3B" transform="translate(0,0)"/>
<path d="" fill="#F57839" transform="translate(0,0)"/>
<path d="" fill="#F1793A" transform="translate(0,0)"/>
<path d="" fill="#F47A38" transform="translate(0,0)"/>
<path d="" fill="#F47E38" transform="translate(0,0)"/>
<path d="" fill="#F57834" transform="translate(0,0)"/>
<path d="" fill="#F27433" transform="translate(0,0)"/>
<path d="" fill="#F47A37" transform="translate(0,0)"/>
<path d="" fill="#AD9253" transform="translate(0,0)"/>
<path d="" fill="#F57832" transform="translate(0,0)"/>
<path d="" fill="#F67D39" transform="translate(0,0)"/>
<path d="" fill="#F67D37" transform="translate(0,0)"/>
<path d="" fill="#F47A35" transform="translate(0,0)"/>
<path d="" fill="#F47B34" transform="translate(0,0)"/>
<path d="" fill="#F57E3B" transform="translate(0,0)"/>
<path d="" fill="#F57D38" transform="translate(0,0)"/>
<path d="" fill="#F47C3D" transform="translate(0,0)"/>
<path d="" fill="#F37D38" transform="translate(0,0)"/>
<path d="" fill="#F37C38" transform="translate(0,0)"/>
<path d="" fill="#F57D36" transform="translate(0,0)"/>
<path d="" fill="#F57B3B" transform="translate(0,0)"/>
<path d="" fill="#F57935" transform="translate(0,0)"/>
<path d="" fill="#F77B37" transform="translate(0,0)"/>
<path d="" fill="#F57B3A" transform="translate(0,0)"/>
<path d="" fill="#F77D3B" transform="translate(0,0)"/>
<path d="" fill="#F77D3A" transform="translate(0,0)"/>
<path d="" fill="#F67938" transform="translate(0,0)"/>
<path d="" fill="#C18F51" transform="translate(0,0)"/>
<path d="" fill="#AE9152" transform="translate(0,0)"/>
<path d="" fill="#DE8645" transform="translate(0,0)"/>
<path d="" fill="#D28C49" transform="translate(0,0)"/>
<path d="" fill="#C88E4E" transform="translate(0,0)"/>
<path d="" fill="#AB9254" transform="translate(0,0)"/>
<path d="" fill="#BB9052" transform="translate(0,0)"/>
<path d="" fill="#AC9454" transform="translate(0,0)"/>
<path d="" fill="#BF8E4F" transform="translate(0,0)"/>
<path d="" fill="#A69352" transform="translate(0,0)"/>
<path d="" fill="#CE8D4D" transform="translate(0,0)"/>
<path d="" fill="#C08F51" transform="translate(0,0)"/>
<path d="" fill="#AE9455" transform="translate(0,0)"/>
<path d="" fill="#BC9152" transform="translate(0,0)"/>
<path d="" fill="#CC8C4B" transform="translate(0,0)"/>
<path d="" fill="#BB9253" transform="translate(0,0)"/>
<path d="" fill="#A69354" transform="translate(0,0)"/>
<path d="" fill="#A69353" transform="translate(0,0)"/>
<path d="" fill="#A99354" transform="translate(0,0)"/>
<path d="" fill="#B29354" transform="translate(0,0)"/>
<path d="" fill="#C88D50" transform="translate(0,0)"/>
<path d="" fill="#BB9052" transform="translate(0,0)"/>
<path d="" fill="#A69151" transform="translate(0,0)"/>
<path d="" fill="#B29554" transform="translate(0,0)"/>
<path d="" fill="#C58E4F" transform="translate(0,0)"/>
<path d="" fill="#A79154" transform="translate(0,0)"/>
<path d="" fill="#BA9253" transform="translate(0,0)"/>
<path d="" fill="#B39154" transform="translate(0,0)"/>
<path d="" fill="#A99155" transform="translate(0,0)"/>
<path d="" fill="#B99254" transform="translate(0,0)"/>
<path d="" fill="#C78F51" transform="translate(0,0)"/>
<path d="" fill="#A79554" transform="translate(0,0)"/>
<path d="" fill="#A79555" transform="translate(0,0)"/>
<path d="" fill="#C39052" transform="translate(0,0)"/>
<path d="" fill="#AE9354" transform="translate(0,0)"/>
<path d="" fill="#B89253" transform="translate(0,0)"/>
<path d="" fill="#C19052" transform="translate(0,0)"/>
<path d="" fill="#C39050" transform="translate(0,0)"/>
<path d="" fill="#B69254" transform="translate(0,0)"/>
<path d="" fill="#B19353" transform="translate(0,0)"/>
<path d="" fill="#C49152" transform="translate(0,0)"/>
<path d="" fill="#B79354" transform="translate(0,0)"/>
</svg>
